<?xml version="1.0" standalone="no"?>
<!DOCTYPE svg PUBLIC "-//W3C//DTD SVG 20010904//EN"
 "http://www.w3.org/TR/2001/REC-SVG-20010904/DTD/svg10.dtd">
<svg version="1.0" xmlns="http://www.w3.org/2000/svg"
 width="1775.000000pt" height="1724.000000pt" viewBox="0 0 1775.000000 1724.000000"
 preserveAspectRatio="xMidYMid meet">

<g transform="translate(0.000000,1724.000000) scale(0.100000,-0.100000)"
fill="#000000" stroke="none">
<path d="M8375 17029 c-366 -22 -985 -99 -1127 -140 -18 -5 -60 -14 -93 -20
-175 -31 -565 -123 -765 -180 -484 -140 -1125 -394 -1546 -614 -689 -361
-1218 -721 -1779 -1211 -908 -794 -1647 -1798 -2140 -2909 -619 -1396 -833
-2990 -604 -4510 304 -2020 1324 -3816 2930 -5161 1062 -890 2377 -1529 3729
-1813 318 -67 722 -129 1055 -163 202 -21 268 -23 805 -22 380 0 625 4 700 12
63 7 165 16 225 22 173 15 503 63 700 101 644 123 1097 253 1650 471 515 204
1018 463 1505 776 116 75 192 126 399 272 173 122 420 322 666 539 178 157
555 535 709 710 903 1026 1539 2242 1856 3546 54 222 122 581 140 735 6 52 13
102 15 110 8 26 44 376 57 543 15 205 15 803 -1 1052 -12 187 -32 378 -70 667
-48 359 -147 805 -260 1179 -148 489 -301 864 -572 1403 -370 735 -924 1477
-1587 2127 -755 739 -1600 1313 -2561 1738 -613 272 -1260 473 -1885 587 -44
8 -96 18 -115 23 -121 31 -678 100 -976 122 -201 14 -873 20 -1060 8z m890
-49 c469 -23 879 -73 1320 -161 1965 -393 3719 -1441 4983 -2978 561 -682
1033 -1500 1345 -2332 881 -2347 622 -5003 -696 -7129 -482 -778 -1079 -1465
-1787 -2056 -904 -754 -1957 -1315 -3100 -1649 -1190 -348 -2478 -442 -3705
-269 -1218 171 -2394 600 -3425 1249 -881 554 -1683 1295 -2299 2124 -1223
1647 -1782 3654 -1580 5676 131 1321 572 2564 1304 3680 690 1053 1645 1967
2740 2622 990 593 2103 985 3252 1148 269 38 519 61 843 78 143 8 617 6 805
-3z"/>
<path d="M8312 14069 c-13 -5 -35 -6 -48 -3 -26 7 -160 -10 -229 -27 -22 -6
-71 -15 -110 -20 -38 -5 -81 -13 -95 -18 -14 -5 -45 -14 -70 -21 -50 -14 -95
-28 -125 -40 -11 -4 -51 -17 -88 -29 -154 -48 -565 -241 -679 -318 -96 -67
-98 -67 -222 -48 l-111 18 -90 -51 c-189 -108 -448 -324 -697 -583 -194 -202
-239 -254 -265 -304 -9 -16 -37 -57 -63 -91 -62 -80 -102 -151 -176 -309 -39
-82 -68 -131 -79 -133 -9 -2 -56 5 -103 17 -289 68 -423 94 -434 83 -7 -7 8
-34 56 -94 91 -115 202 -255 351 -442 69 -87 131 -166 137 -176 9 -14 -8 -56
-95 -231 -254 -513 -374 -968 -409 -1549 -25 -427 40 -935 173 -1348 l30 -93
-35 -87 c-78 -200 -177 -568 -220 -820 -13 -79 -26 -145 -28 -147 -1 -1 -45
-10 -97 -19 -273 -50 -523 -158 -644 -280 -62 -61 -89 -112 -95 -179 -9 -94
42 -328 128 -590 l49 -150 -45 -134 c-97 -292 -129 -481 -129 -778 0 -235 12
-342 62 -565 100 -450 293 -695 571 -726 48 -6 64 -13 100 -46 100 -91 259
-135 522 -144 140 -5 177 -10 245 -32 109 -35 251 -37 310 -5 91 49 130 117
129 228 -1 93 -22 157 -85 256 -58 93 -98 182 -120 268 -22 84 -37 246 -23
239 149 -72 240 -73 321 -3 44 38 75 95 100 185 27 99 24 383 -6 552 -47 269
-105 405 -265 623 -7 9 18 55 81 152 159 240 238 426 231 536 l-3 54 100 -87
c372 -324 741 -542 1143 -675 59 -20 82 -32 82 -44 -1 -9 -34 -168 -74 -354
l-72 -337 40 -24 c23 -13 65 -34 94 -46 28 -12 52 -24 52 -25 0 -1 -12 -29
-26 -61 -15 -33 -50 -124 -78 -204 l-51 -145 -59 -7 c-32 -4 -84 -15 -116 -24
l-58 -16 -46 -192 c-25 -105 -53 -224 -63 -264 -17 -71 -17 -72 -49 -72 -49 0
-184 -28 -261 -54 -147 -50 -270 -125 -372 -227 -152 -153 -250 -354 -291
-597 l-20 -112 -54 -54 c-85 -86 -101 -136 -100 -321 0 -82 6 -173 13 -201 11
-45 20 -58 79 -106 200 -164 463 -290 730 -348 319 -70 719 -68 1081 6 147 29
320 78 372 105 44 22 86 70 109 124 37 85 59 435 31 487 -7 15 -29 34 -47 44
-19 10 -34 22 -34 26 0 4 8 37 17 75 12 48 17 113 17 223 1 170 -12 237 -75
384 -27 64 -30 78 -24 136 10 102 54 410 81 569 13 80 24 148 24 152 0 4 -25
23 -55 41 l-56 33 6 50 c8 62 82 356 93 367 5 5 47 13 94 18 90 10 201 40 231
63 15 10 30 79 75 350 l57 337 102 0 c56 0 104 -3 106 -7 3 -5 40 -175 83
-379 l77 -370 92 -17 c50 -9 102 -17 115 -17 14 0 30 -4 37 -8 14 -9 58 -170
77 -282 l13 -75 -57 -36 -57 -37 29 -173 c39 -237 78 -530 78 -583 0 -26 -13
-76 -31 -121 -16 -42 -39 -111 -51 -153 -34 -131 -26 -372 18 -514 4 -13 0
-18 -13 -18 -23 -1 -57 -28 -73 -60 -26 -50 -1 -401 35 -486 23 -57 81 -111
142 -134 133 -50 346 -99 548 -126 182 -25 547 -25 705 -1 358 56 640 174 887
372 85 68 90 80 103 248 14 195 -15 300 -108 391 -46 46 -49 52 -61 127 -73
480 -366 807 -795 891 -56 10 -117 22 -136 26 l-34 7 -61 255 c-69 293 -51
267 -204 297 -90 18 -95 20 -104 48 -9 28 -88 250 -102 287 -5 13 4 22 37 38
53 27 158 93 158 100 0 3 -45 167 -99 365 l-99 359 142 57 c254 102 440 197
665 341 687 437 1246 1122 1523 1867 38 104 39 106 151 220 150 154 316 365
406 514 25 40 28 42 65 27 52 -19 226 -49 354 -61 157 -13 324 -1 471 37 344
87 561 328 561 621 0 115 -52 287 -118 392 l-28 44 84 81 c181 174 318 385
437 675 45 109 125 362 125 394 0 10 58 76 129 146 340 339 495 601 452 759
-24 85 -101 142 -193 142 -112 0 -322 -90 -536 -230 -68 -44 -125 -80 -127
-80 -2 0 33 60 79 133 312 496 459 852 426 1028 -13 70 -44 112 -105 146 -107
60 -243 28 -401 -92 -127 -98 -314 -307 -461 -517 -31 -44 -57 -78 -58 -76 -2
2 10 44 26 93 143 439 127 677 -50 740 -133 47 -292 -22 -429 -185 -182 -217
-357 -566 -581 -1155 -113 -299 -149 -373 -208 -425 -39 -34 -53 -40 -91 -40
-72 0 -178 69 -303 198 -306 316 -300 309 -283 323 9 8 28 31 41 53 14 21 44
62 66 91 23 29 67 88 97 131 30 44 87 123 127 177 40 54 73 102 73 107 0 18
-32 10 -184 -44 -83 -30 -191 -65 -241 -79 -109 -31 -103 -35 -170 113 -79
177 -268 417 -462 588 -239 210 -508 403 -704 506 l-105 55 -44 -15 c-61 -21
-146 -29 -163 -16 -25 21 -296 152 -399 193 -84 33 -256 92 -463 158 -16 5
-57 15 -90 21 -33 7 -91 18 -130 26 -159 33 -301 43 -580 43 -154 0 -290 -4
-303 -10z m2182 -488 c3 -4 3 -11 0 -14 -8 -8 -34 3 -34 14 0 11 27 12 34 0z
m-17 -47 c25 -25 49 -59 55 -75 8 -25 15 -30 37 -27 23 3 26 7 26 46 0 33 -3
42 -16 42 -9 0 -27 9 -40 20 -20 16 -21 19 -6 20 31 0 83 -34 79 -52 -2 -12 3
-19 15 -19 10 -1 25 -3 33 -4 8 -1 20 -3 26 -4 6 0 23 -10 38 -22 l26 -21 -37
-51 c-21 -29 -43 -58 -50 -65 -47 -48 35 -37 160 22 31 16 42 16 67 6 42 -17
38 -42 -11 -62 -42 -18 -45 -38 -6 -38 34 0 149 -39 169 -56 9 -9 22 -13 28
-9 12 7 94 -44 85 -53 -3 -3 -11 0 -17 6 -16 16 -71 16 -66 0 4 -11 39 -36 76
-54 7 -4 21 1 31 10 16 15 20 14 51 -9 45 -33 53 -50 34 -65 -19 -17 -2 -30
39 -30 18 0 39 -13 67 -41 22 -23 40 -46 40 -51 0 -6 -32 -7 -85 -3 -72 6 -85
5 -85 -7 0 -10 -18 -19 -57 -27 -60 -12 -69 -9 -75 24 -2 11 -11 21 -22 23
-17 4 -145 -53 -156 -68 -8 -12 -90 -37 -165 -50 -78 -13 -165 -4 -173 19 -4
11 6 13 52 8 31 -3 56 -2 56 3 0 5 -20 16 -45 26 -25 9 -45 21 -45 25 0 12 15
11 83 -2 50 -10 60 -10 75 5 10 9 26 16 35 16 11 0 17 8 17 21 0 19 4 20 33
15 74 -16 97 -18 97 -10 0 10 -97 44 -125 44 -10 0 -29 -10 -41 -21 -15 -14
-29 -19 -41 -14 -16 6 -15 9 11 30 28 22 28 23 8 34 -17 9 -24 8 -39 -8 -19
-20 -99 -61 -119 -61 -20 0 -27 19 -14 35 7 8 29 19 50 25 45 12 71 37 51 50
-8 4 -28 4 -45 -1 -36 -11 -66 -3 -66 17 0 8 10 14 25 14 32 0 32 17 1 32 -20
8 -28 7 -41 -6 -9 -9 -14 -16 -11 -16 4 0 -6 -13 -20 -29 -31 -35 -70 -55
-177 -91 -43 -15 -78 -31 -78 -36 0 -5 30 -15 68 -22 118 -22 141 -31 160 -62
9 -16 30 -35 46 -41 21 -9 25 -14 15 -20 -18 -12 -118 -11 -118 1 0 23 -96 55
-269 91 -92 19 -123 16 -106 -11 4 -6 19 -16 33 -22 16 -6 22 -12 14 -15 -16
-6 -150 26 -158 38 -3 5 -20 9 -37 9 -18 1 -68 10 -112 21 -44 11 -107 27
-140 34 -36 8 -67 22 -77 35 -9 11 -21 20 -27 20 -6 0 -11 4 -11 8 0 8 -106
42 -132 42 -9 0 -24 -7 -33 -16 -12 -12 -27 -15 -57 -11 -53 7 -69 23 -37 36
50 19 129 141 91 141 -63 0 -233 -55 -283 -92 -24 -18 -29 -19 -84 -4 -58 15
-95 36 -63 36 27 0 198 76 198 88 0 4 -23 18 -50 32 -28 13 -49 29 -47 35 2 5
22 14 44 19 35 7 49 4 95 -18 63 -30 157 -51 171 -37 7 7 2 28 -11 61 -15 37
-18 52 -9 55 33 10 204 45 219 45 14 0 13 -4 -7 -25 -14 -13 -25 -33 -26 -45
-4 -68 -6 -65 37 -63 76 5 172 58 269 148 62 59 82 69 177 90 75 16 98 15 98
-7 0 -21 86 -112 138 -145 50 -32 212 -93 248 -93 12 0 14 6 9 33 -22 100
-139 239 -213 253 l-37 7 50 18 c85 30 111 26 162 -27z m-3854 -50 c18 -9 34
-20 37 -23 3 -3 16 -12 29 -19 13 -8 38 -22 55 -31 64 -36 289 -107 306 -96
12 7 -26 82 -49 95 -13 7 -10 9 14 10 33 0 205 -26 211 -33 2 -2 -6 -22 -18
-45 -13 -22 -20 -43 -17 -46 8 -8 73 19 87 37 7 8 9 22 6 32 -6 15 -3 17 27
12 19 -3 79 -11 134 -18 55 -6 114 -17 130 -24 l30 -12 -30 -8 c-39 -10 -155
-67 -155 -76 0 -9 87 -39 112 -39 11 0 29 -10 41 -23 12 -13 50 -42 83 -65 34
-22 64 -48 67 -57 10 -24 34 -18 64 15 14 17 35 30 45 30 14 0 18 5 13 19 -5
15 8 25 71 55 42 20 92 37 110 39 19 1 34 5 34 8 0 3 -17 13 -37 24 -64 31
-20 28 149 -9 150 -33 285 -74 247 -76 -9 0 -22 -6 -29 -14 -14 -18 -135 -60
-153 -53 -7 2 0 10 16 17 15 7 28 17 28 22 1 4 2 12 3 17 0 5 4 13 9 17 30 30
-52 30 -168 -1 -126 -32 -292 -137 -299 -189 -2 -12 -19 -26 -47 -37 -64 -26
-82 -24 -97 11 -19 41 -152 153 -229 192 -35 18 -66 35 -69 39 -2 4 -37 17
-77 29 -39 12 -83 26 -96 31 -33 14 -45 -1 -36 -47 5 -29 22 -53 71 -101 36
-34 75 -65 87 -69 12 -4 24 -9 27 -13 13 -16 171 -85 219 -96 47 -10 46 -23
-1 -36 -24 -6 -61 -18 -83 -25 -22 -7 -98 -31 -170 -52 -71 -22 -178 -54 -237
-72 l-107 -33 -32 32 c-52 52 -343 181 -409 181 -19 0 -20 -4 -14 -37 14 -79
69 -136 178 -188 44 -20 69 -26 98 -22 21 3 38 3 38 1 0 -11 -70 -37 -128 -47
-71 -13 -168 -7 -124 8 12 4 22 10 22 14 -1 10 -85 71 -129 91 -22 11 -51 20
-65 20 -29 0 -183 -75 -209 -101 -18 -20 -19 -20 -207 -2 l-65 6 45 14 c215
69 387 162 434 236 16 23 16 27 3 27 -31 0 -164 -31 -260 -61 -127 -39 -336
-139 -388 -185 -12 -11 -37 -14 -94 -12 l-77 3 34 38 c19 20 41 37 50 37 22 0
43 27 26 33 -23 8 34 45 80 52 23 3 42 10 42 16 0 5 6 9 13 9 20 0 220 104
219 114 0 7 -38 31 -100 62 -7 4 11 31 28 42 17 10 27 9 62 -9 113 -58 341
-120 361 -100 25 25 -138 200 -214 231 -36 15 -37 35 -2 54 25 12 30 12 63 -8
44 -28 119 -56 147 -56 18 0 21 -5 20 -27 -2 -26 1 -28 39 -31 54 -4 109 37
99 75 -5 23 -4 24 31 19 20 -4 40 -9 44 -11 5 -3 18 8 30 25 12 16 27 30 34
30 8 0 19 7 26 15 10 12 24 14 58 9 72 -11 48 17 -34 38 -50 14 -87 17 -137
13 -62 -6 -68 -5 -65 11 2 10 17 21 36 26 42 11 41 32 -3 45 -19 6 -35 8 -35
4 0 -13 -40 -51 -54 -51 -8 0 -24 8 -37 19 l-23 18 45 29 c95 61 95 61 142 38z
m-176 -113 c17 -27 -6 -45 -46 -36 -35 7 -47 31 -23 44 27 16 56 13 69 -8z
m-103 -40 c8 -13 -3 -38 -20 -45 -19 -7 -44 3 -44 20 0 24 52 44 64 25z m201
-12 c8 -12 -38 -57 -73 -70 -26 -10 -62 -4 -62 11 0 5 17 22 37 39 38 31 86
41 98 20z m1165 -19 c0 -23 -26 -26 -52 -6 -26 20 -22 26 17 26 28 0 35 -4 35
-20z m155 -9 c11 -19 -79 -47 -111 -34 -14 5 -13 9 7 24 25 20 94 26 104 10z
m85 -42 c0 -17 -5 -20 -32 -17 -35 3 -49 24 -21 31 40 10 53 7 53 -14z m1050
-3 c0 -11 -75 -46 -100 -46 -22 0 -29 -5 -32 -22 -2 -19 -10 -23 -40 -24 -22
-1 -39 4 -42 12 -6 16 23 34 56 34 13 0 28 4 34 10 19 19 124 50 124 36z
m-1302 -23 c2 -7 -8 -18 -23 -25 -21 -10 -28 -9 -35 2 -4 7 -6 19 -3 27 7 17
55 13 61 -4z m165 -8 c1 -5 -13 -11 -30 -13 -31 -3 -42 6 -26 22 10 10 53 3
56 -9z m1202 -5 c-3 -5 -10 -10 -16 -10 -5 0 -9 5 -9 10 0 6 7 10 16 10 8 0
12 -4 9 -10z m-57 -32 c-5 -15 -58 -24 -58 -10 0 15 12 22 38 22 14 0 22 -5
20 -12z m4766 -7 c3 -4 -6 -19 -20 -32 -14 -13 -56 -64 -94 -114 -185 -246
-413 -700 -526 -1044 -68 -207 -171 -346 -358 -487 l-39 -29 26 41 c32 52 41
72 138 328 248 652 422 998 603 1192 78 85 131 123 194 140 58 16 69 16 76 5z
m-4858 -40 c-4 -5 0 -12 6 -14 7 -3 3 -6 -9 -6 -23 -1 -37 12 -26 23 10 10 35
7 29 -3z m-122 -56 c27 -8 57 -21 65 -29 9 -7 39 -14 68 -14 44 -1 133 -30 95
-32 -8 0 -43 -13 -79 -30 -35 -16 -67 -30 -71 -30 -14 1 -70 59 -77 79 -3 12
-13 21 -21 21 -8 0 -14 5 -14 10 0 6 -7 10 -16 10 -8 0 -22 7 -30 15 -14 13
-13 15 8 15 13 0 45 -7 72 -15z m-307 -45 c48 -42 74 -55 153 -79 52 -16 121
-34 153 -41 52 -10 61 -10 77 5 18 17 20 15 46 -39 30 -64 70 -101 150 -140
98 -48 354 -97 354 -67 0 20 -70 66 -177 118 -62 29 -115 53 -118 53 -14 0
-135 63 -135 70 0 4 17 11 38 15 44 7 108 28 118 38 11 11 65 7 103 -7 42 -15
37 -18 -56 -42 -39 -10 -70 -21 -67 -25 2 -4 20 -10 41 -14 20 -4 46 -13 57
-21 24 -16 62 -19 71 -4 11 17 27 11 21 -8 -5 -14 2 -21 26 -30 18 -7 48 -26
67 -42 18 -17 36 -30 38 -30 2 0 21 9 43 20 29 15 39 27 42 47 2 23 9 29 43
37 58 12 114 11 165 -4 l45 -14 -40 -6 c-89 -14 -176 -77 -191 -136 l-7 -27
74 7 c125 12 269 68 286 111 7 21 49 19 123 -5 34 -11 70 -20 79 -20 16 0 126
-27 281 -69 41 -11 107 -28 145 -37 155 -37 209 -58 222 -85 25 -52 121 -117
235 -158 59 -22 193 -51 233 -51 26 0 26 0 8 24 -26 35 -83 72 -131 86 -73 22
-38 22 44 0 162 -44 314 -100 271 -100 -12 0 -17 -6 -15 -17 3 -15 13 -18 68
-15 49 3 77 -1 113 -17 27 -12 46 -25 43 -30 -9 -14 16 -28 77 -42 l59 -14 -7
-44 c-11 -72 -13 -73 -51 -43 -19 15 -38 28 -44 28 -5 1 -17 2 -26 3 -9 0 -12
6 -8 13 4 7 3 8 -4 4 -6 -4 -22 0 -35 9 -36 23 -148 65 -159 59 -12 -7 31 -82
61 -105 l23 -19 -30 -34 c-28 -33 -31 -34 -46 -17 -9 10 -13 21 -9 25 13 13
-92 -46 -109 -61 -10 -9 -18 -12 -18 -7 0 5 -4 5 -8 -1 -4 -5 -27 -20 -52 -33
-25 -12 -65 -34 -89 -48 -42 -25 -47 -26 -99 -14 -30 7 -71 18 -90 24 l-36 13
66 16 c132 33 275 113 305 170 16 31 10 79 -12 97 -21 17 -151 -22 -247 -74
-85 -46 -198 -138 -198 -162 0 -31 -143 -1 -179 38 -11 11 -30 26 -43 32 -14
7 -23 21 -23 35 0 19 -19 33 -110 81 -122 65 -208 97 -290 106 -58 7 -65 2
-44 -37 5 -11 14 -17 19 -14 6 4 7 -1 3 -11 -5 -13 -3 -15 7 -9 9 5 11 4 6 -3
-4 -7 -2 -12 5 -12 7 0 10 -2 8 -4 -2 -3 -27 0 -54 5 -102 20 -96 18 -85 39
17 32 3 43 -49 35 -50 -7 -170 -43 -186 -56 -15 -11 -115 -4 -147 11 l-28 13
32 24 c18 12 42 23 54 23 29 0 74 17 74 28 0 5 -17 15 -39 22 -34 11 -42 10
-69 -5 -18 -11 -37 -15 -48 -11 -18 7 -18 9 5 27 20 17 21 20 6 25 -10 4 -30
-1 -46 -10 -17 -10 -38 -15 -49 -11 -30 10 -14 25 26 25 48 0 40 22 -12 34
-21 5 -42 14 -46 19 -7 11 -114 -8 -134 -24 -6 -5 -49 -28 -95 -50 -82 -40
-86 -41 -161 -36 -42 4 -91 13 -110 21 l-33 14 40 1 c56 1 149 26 215 58 52
25 169 99 180 113 3 4 15 10 27 14 17 5 46 -9 122 -59 56 -36 105 -65 109 -65
5 0 26 -8 48 -19 47 -22 148 -47 227 -55 75 -8 75 6 -2 73 -57 50 -60 51 -122
51 -40 1 -71 6 -83 15 -19 15 -16 30 7 30 7 0 13 4 15 10 11 34 -304 64 -428
40 -14 -3 -61 -8 -105 -11 -64 -5 -85 -11 -105 -29 -14 -13 -68 -47 -120 -76
-96 -53 -113 -66 -104 -81 7 -11 -54 -10 -96 2 -20 5 -55 28 -78 50 -72 67
-222 130 -368 155 -197 34 -447 -27 -629 -153 -87 -60 -139 -106 -126 -110 7
-2 56 6 109 18 200 46 325 94 446 172 68 43 76 45 83 19 8 -33 106 -91 177
-106 48 -10 13 -30 -52 -30 -47 0 -66 6 -108 33 -61 38 -74 39 -103 8 -12 -13
-49 -36 -81 -50 -60 -27 -198 -66 -233 -66 -29 0 -3 -28 31 -32 l27 -4 -30
-14 c-34 -15 -124 -17 -231 -5 -69 7 -72 7 -79 -15 -5 -15 -2 -26 6 -31 19
-12 0 -24 -67 -44 -55 -17 -79 -13 -89 13 -3 9 -3 13 1 9 9 -8 55 44 48 55 -8
12 -86 2 -95 -13 -5 -8 -9 -9 -9 -3 0 6 -7 11 -15 11 -8 0 -12 -4 -9 -9 5 -8
-12 -12 -31 -8 -5 1 -14 3 -20 4 -5 2 -32 7 -60 11 -49 9 -49 9 -16 15 44 6
51 27 15 40 -19 8 -42 8 -76 0 -61 -13 -88 -13 -88 0 0 6 14 10 31 10 43 0 32
22 -16 34 -22 5 -48 17 -58 27 -46 42 -70 43 -144 6 -38 -19 -125 -53 -193
-76 -69 -23 -132 -44 -140 -47 -9 -4 7 -13 40 -23 54 -16 100 -40 100 -52 0
-8 -107 -53 -114 -47 -2 1 -14 -6 -27 -17 -13 -11 -18 -13 -11 -5 14 17 16 34
2 25 -5 -3 -10 -2 -10 4 0 15 -119 50 -207 60 -211 23 -460 -48 -683 -195 -70
-46 -219 -184 -239 -223 -15 -28 -21 -28 124 14 120 34 201 69 313 132 98 55
101 57 228 158 45 36 85 65 90 65 5 -1 43 -33 84 -71 71 -67 121 -105 106 -81
-3 6 -2 13 3 16 5 4 8 -2 7 -11 -2 -9 -27 -37 -57 -62 -30 -25 -51 -42 -47
-37 9 11 -19 39 -32 31 -5 -3 -29 14 -53 39 -24 25 -50 45 -57 45 -8 -1 -40
-28 -70 -61 -49 -53 -53 -61 -42 -79 10 -16 10 -24 1 -35 -17 -21 -57 -18 -64
6 -8 24 -32 26 -63 4 -31 -21 -27 -32 11 -30 22 1 32 -3 32 -14 0 -10 -13 -16
-42 -18 -24 -2 -43 1 -43 7 0 11 -130 -22 -160 -42 -11 -6 -20 -17 -20 -24 0
-20 44 -15 63 7 24 29 41 25 86 -20 22 -22 45 -40 52 -40 24 0 -13 -26 -70
-48 -67 -28 -72 -27 -117 3 -46 31 -86 43 -196 57 -107 14 -118 8 -118 -65 0
-38 6 -58 26 -84 14 -18 23 -37 20 -42 -7 -10 -96 -45 -101 -39 -11 11 -28
166 -30 273 -2 86 -7 130 -19 157 -15 36 -15 38 6 58 12 11 28 21 35 22 7 0
18 1 23 2 6 1 11 -3 12 -9 4 -16 31 -45 43 -45 6 0 21 10 35 23 31 27 147 107
157 107 5 0 23 14 42 30 18 17 40 30 47 30 8 0 14 5 14 10 0 6 6 10 13 9 6 -1
25 3 42 10 16 7 51 17 76 22 48 10 89 39 55 39 -29 0 -17 17 23 33 31 13 61
15 145 10 94 -5 106 -4 106 10 0 10 1 20 1 25 1 4 -8 12 -20 18 -20 11 -18 13
34 38 30 14 59 26 64 26 5 0 55 19 112 41 167 66 523 180 679 217 30 7 49 7
57 0 7 -6 44 -7 95 -3 218 16 436 97 529 197 20 21 45 38 57 38 12 0 39 6 59
14 55 21 419 136 478 152 39 10 143 40 152 43 1 1 28 -22 60 -49z m2068 -45
c0 -11 -7 -21 -16 -23 -18 -3 -33 23 -23 39 10 17 39 5 39 -16z m-4651 -40 c3
-10 -3 -17 -20 -21 -29 -7 -39 -1 -31 21 8 19 43 20 51 0z m4571 -5 c3 -5 -3
-10 -15 -10 -12 0 -18 5 -15 10 3 6 10 10 15 10 5 0 12 -4 15 -10z m-1135 -19
c0 -11 -26 -22 -34 -14 -12 12 -5 23 14 23 11 0 20 -4 20 -9z m125 -21 c3 -6
-5 -10 -19 -10 -14 0 -28 5 -31 10 -3 6 5 10 19 10 14 0 28 -4 31 -10z m1100
1 c3 -5 0 -13 -5 -16 -15 -9 -60 3 -60 15 0 13 57 13 65 1z m-4745 -16 c-7 -9
-15 -13 -17 -11 -7 7 7 26 19 26 6 0 6 -6 -2 -15z m3588 -8 c3 -12 -3 -17 -22
-17 -29 0 -44 19 -25 31 20 13 43 6 47 -14z m137 3 c3 -5 -3 -10 -14 -10 -12
0 -21 5 -21 10 0 6 6 10 14 10 8 0 18 -4 21 -10z m-57 -87 c6 -19 -33 -16 -49
3 -11 14 -9 15 16 12 16 -1 30 -9 33 -15z m-3030 -90 c-4 -19 -50 -34 -69 -23
-21 13 8 40 43 40 22 0 29 -4 26 -17z m-102 -47 c12 -12 9 -16 -17 -25 -21 -7
-38 -7 -57 0 l-27 11 30 13 c40 18 54 18 71 1z m152 8 c23 -7 30 -28 12 -39
-6 -4 -24 -4 -40 0 -26 6 -28 9 -20 26 12 21 14 22 48 13z m597 -4 c-3 -5 -11
-10 -16 -10 -6 0 -7 5 -4 10 3 6 11 10 16 10 6 0 7 -4 4 -10z m-677 -37 c-10
-2 -26 -2 -35 0 -10 3 -2 5 17 5 19 0 27 -2 18 -5z m5774 -196 c-12 -13 -22
-28 -22 -35 0 -6 -6 -15 -14 -19 -8 -4 -37 -42 -66 -83 -28 -41 -67 -99 -86
-127 -20 -29 -43 -53 -51 -53 -8 0 -12 -4 -9 -9 3 -5 -10 -28 -29 -51 -30 -36
-33 -45 -23 -59 10 -12 8 -12 -8 2 -21 17 -21 20 -6 90 12 59 12 86 3 155 -7
45 -14 89 -17 96 -3 9 5 15 23 19 65 13 183 47 243 70 82 32 88 32 62 4z
m-4032 -42 c11 -13 8 -15 -19 -15 -33 0 -42 16 -13 23 9 3 18 5 18 6 1 0 7 -6
14 -14z m1219 -19 c13 -15 -4 -26 -40 -26 -22 0 -24 11 -7 28 16 16 33 15 47
-2z m136 -6 c4 -6 -5 -10 -20 -10 -15 0 -24 4 -20 10 3 6 12 10 20 10 8 0 17
-4 20 -10z m-2475 -20 c0 -11 -48 -25 -56 -17 -4 3 -3 10 1 16 8 14 55 14 55
1z m1005 -5 c-35 -17 -55 -19 -55 -6 0 13 19 19 55 19 l30 0 -30 -13z m1399 9
c9 -3 13 -10 10 -15 -3 -5 14 -12 36 -15 28 -5 38 -10 31 -17 -7 -7 -22 -7
-48 1 -21 6 -47 13 -57 14 -26 4 -32 25 -9 31 10 3 19 5 20 6 1 0 8 -2 17 -5z
m186 -4 c0 -14 -35 -30 -64 -30 -29 0 -44 19 -25 31 19 12 89 11 89 -1z
m-2782 -12 c-5 -16 -48 -24 -48 -10 0 11 17 20 38 21 8 1 12 -5 10 -11z m2449
6 c-3 -3 -12 -4 -19 -1 -8 3 -5 6 6 6 11 1 17 -2 13 -5z m-2357 -44 c12 -22 1
-27 -46 -22 -36 4 -45 25 -18 40 22 12 52 4 64 -18z m-180 12 c0 -13 -34 -37
-57 -40 -31 -4 -37 14 -11 32 23 17 68 22 68 8z m30 -52 c12 -8 10 -10 -8 -10
-13 0 -20 -4 -17 -10 4 -6 -1 -7 -11 -3 -11 4 -13 8 -6 11 7 2 10 8 6 13 -7
12 17 11 36 -1z m1637 -142 c51 -27 100 -48 109 -48 9 0 44 16 78 35 50 28 74
35 117 35 63 0 475 -42 633 -65 60 -8 111 -15 113 -15 1 0 -15 -23 -36 -51
-21 -28 -48 -67 -59 -87 l-20 -37 241 0 c210 0 257 -3 354 -23 203 -41 370
-107 506 -201 83 -58 145 -117 112 -108 -11 4 -103 25 -205 47 -710 158 -1362
239 -2169 270 l-263 10 -62 54 c-92 81 -174 138 -265 185 -44 23 -81 44 -81
47 0 3 181 4 403 2 l402 -3 92 -47z m-3562 -10 c28 -7 55 -16 62 -21 7 -5 17
-6 22 -3 5 4 12 2 15 -2 3 -5 17 -7 31 -4 14 2 25 0 25 -4 0 -5 19 -10 42 -12
53 -4 63 -13 47 -43 -14 -27 -19 -278 -6 -319 7 -22 5 -21 -23 10 -17 19 -38
49 -47 65 -8 17 -22 34 -29 38 -8 4 -14 15 -14 22 0 8 -7 15 -15 15 -8 0 -15
3 -15 8 0 4 -10 18 -22 32 -33 36 -78 104 -78 118 0 6 -6 9 -13 6 -8 -3 -18 6
-25 21 -6 14 -16 25 -22 25 -5 0 -10 7 -10 15 0 8 -10 24 -22 36 l-23 21 35
-6 c19 -4 58 -12 85 -18z m5700 -8 c-3 -5 -12 -10 -18 -10 -7 0 -6 4 3 10 19
12 23 12 15 0z m795 -55 c0 -2 -6 -8 -13 -14 -10 -8 -14 -7 -14 2 0 8 6 14 14
14 7 0 13 -1 13 -2z m-5240 -85 c0 -11 -2 -20 -4 -20 -2 0 -11 -3 -20 -6 -11
-4 -16 0 -16 13 0 23 8 33 27 33 7 0 13 -9 13 -20z m5252 -22 c-8 -8 -9 -4 -5
13 4 13 8 18 11 10 2 -7 -1 -18 -6 -23z m-3563 -87 c255 -221 566 -723 728
-1176 14 -38 28 -73 32 -78 4 -4 46 37 93 91 211 242 540 504 786 627 199 99
341 138 507 137 227 -1 389 -74 563 -256 162 -169 301 -426 408 -758 l28 -87
57 109 c116 224 246 360 344 360 91 0 186 -142 256 -387 18 -62 36 -110 40
-105 3 4 19 41 34 82 54 147 144 278 217 316 57 29 143 8 196 -49 29 -31 62
-136 106 -337 53 -242 53 -220 2 -253 -25 -15 -71 -57 -104 -92 -177 -189
-199 -450 -54 -662 38 -56 151 -171 201 -205 21 -15 23 -22 19 -63 -3 -25 -8
-48 -10 -50 -2 -2 -26 2 -53 11 -129 39 -429 118 -604 159 -271 64 -718 152
-726 143 -2 -2 -6 -28 -10 -58 l-7 -55 150 -27 c225 -41 512 -103 747 -164
219 -55 415 -110 422 -118 12 -11 -176 -219 -292 -323 -101 -91 -128 -135
-129 -213 -1 -134 118 -244 246 -227 34 5 37 3 28 -13 -11 -21 -264 -213 -425
-323 -1228 -836 -2585 -1152 -4025 -936 -691 104 -1458 356 -2095 689 -257
134 -253 132 -276 175 l-21 40 51 153 c60 180 64 223 24 303 -49 96 -156 146
-262 121 -25 -6 -49 -8 -53 -4 -17 16 -105 358 -132 509 -6 38 -17 34 239 97
320 80 741 167 1048 217 l138 22 -6 29 c-18 95 -15 90 -43 84 -15 -3 -121 -22
-237 -41 -281 -49 -682 -133 -945 -200 -118 -29 -216 -52 -218 -51 -11 12 -32
330 -32 501 0 641 154 1255 448 1792 56 101 57 103 117 129 49 21 293 114 301
114 4 0 45 -120 58 -175 28 -110 48 -277 55 -448 l6 -167 73 125 c96 163 223
360 297 459 l58 79 30 -66 c16 -37 33 -67 36 -67 4 0 17 21 29 46 84 173 253
339 437 432 73 36 243 91 352 113 124 25 461 37 575 22 l67 -9 -15 27 c-8 16
-14 31 -14 35 0 9 60 -37 139 -105z m3750 -103 c19 -37 65 -105 103 -150 230
-272 622 -791 638 -844 16 -56 71 -327 67 -331 -3 -3 -40 72 -114 237 -41 89
-120 186 -339 412 -103 106 -224 239 -269 296 -94 116 -167 251 -185 338 -13
64 -9 162 10 209 l11 29 23 -64 c12 -36 37 -95 55 -132z m-5385 158 c-9 -24
-34 -28 -34 -6 0 13 7 20 20 20 13 0 17 -5 14 -14z m49 -9 c6 3 2 -6 -9 -20
-10 -15 -24 -25 -31 -22 -17 6 -26 -12 -12 -21 8 -4 9 -3 5 4 -4 7 -5 12 -2
12 3 0 7 -4 11 -10 5 -8 -40 -38 -62 -41 -5 -1 -14 -4 -22 -7 -7 -3 -21 4 -30
16 -11 15 -23 20 -37 16 -29 -8 -42 15 -19 33 26 18 75 17 75 -2 0 -9 9 -15
23 -15 28 0 80 34 70 45 -5 4 -2 5 5 1 7 -5 12 -1 13 11 0 11 3 13 6 5 2 -6
10 -9 16 -5z m-235 -89 c-6 -20 -78 -52 -90 -40 -6 6 0 17 18 31 29 23 78 29
72 9z m70 -30 c-7 -21 -58 -42 -71 -29 -7 7 -1 15 24 25 42 19 52 19 47 4z
m4894 -28 c24 -6 131 -40 238 -76 l196 -64 29 -62 c38 -80 93 -166 161 -250
l54 -67 -62 23 c-85 32 -407 137 -547 179 l-115 34 3 104 c1 69 -3 120 -13
152 -12 40 -12 48 -1 43 8 -3 33 -10 57 -16z m-2426 -180 c302 -17 743 -61
956 -96 l38 -6 -93 -45 c-50 -24 -117 -59 -147 -77 l-55 -33 -209 22 c-115 13
-302 28 -415 35 -113 6 -225 13 -248 16 -44 5 -40 0 -156 182 -10 15 81 16
329 2z m4542 -226 c129 -156 249 -363 301 -519 31 -95 52 -204 30 -155 -117
254 -227 450 -403 720 -88 135 -88 135 -33 74 31 -33 78 -87 105 -120z m-7024
84 c-48 -78 -139 -194 -157 -200 -60 -17 -63 -14 -81 78 -9 48 -14 89 -11 92
6 7 189 39 228 41 20 1 26 -3 21 -11z m5026 -313 c279 -83 306 -92 560 -187
118 -44 224 -84 235 -88 17 -6 15 -10 -20 -28 -22 -11 -58 -39 -80 -61 -21
-23 -46 -41 -55 -40 -43 1 -112 47 -157 103 -84 104 -200 139 -297 89 l-38
-19 -157 46 c-86 26 -180 53 -209 59 -50 13 -55 17 -112 100 -33 47 -72 100
-86 118 l-26 32 114 -30 c62 -17 210 -59 328 -94z m-2380 30 c96 -8 195 -17
218 -21 43 -5 44 -6 25 -26 -34 -37 -48 -39 -196 -29 -277 21 -262 18 -280 57
l-17 34 38 0 c20 0 116 -7 212 -15z m5849 -125 c-109 -408 -320 -783 -550
-980 -72 -62 -68 -53 50 91 217 269 393 589 477 869 42 141 43 144 49 138 3
-2 -9 -56 -26 -118z m-5817 -99 c4 -3 -20 -34 -54 -69 -33 -34 -62 -61 -63
-60 -4 5 -55 138 -55 143 0 6 164 -6 172 -14z m2278 -201 l40 -11 -17 -24
c-27 -37 -60 -32 -78 11 -19 45 -19 48 -1 41 8 -3 33 -11 56 -17z m1380 -532
c0 -12 -21 -21 -30 -12 -4 5 -10 29 -14 54 l-6 45 25 -40 c14 -22 25 -43 25
-47z m1576 -370 c69 -125 94 -213 94 -334 0 -149 -46 -251 -164 -361 -142
-133 -365 -203 -646 -203 -359 1 -757 132 -985 325 -24 21 -14 18 45 -14 157
-82 390 -161 570 -193 99 -17 393 -17 490 1 101 18 289 80 377 125 75 37 126
91 171 182 66 130 41 286 -67 422 -41 52 -41 52 -19 61 13 5 39 16 58 25 19 8
38 15 41 16 3 0 19 -24 35 -52z m-1421 -848 c44 -19 83 -36 87 -40 9 -7 -78
-134 -194 -283 -98 -128 -260 -298 -346 -365 -47 -36 -60 -42 -103 -42 -42 0
-55 5 -85 33 -28 26 -37 42 -41 78 -7 62 6 83 109 173 119 104 272 283 387
454 l42 63 32 -19 c18 -10 68 -34 112 -52z m-7443 -710 c44 -13 95 -68 103
-113 5 -24 -5 -67 -39 -167 -69 -206 -120 -397 -157 -587 l-34 -173 -142 0
c-118 0 -143 3 -143 14 0 8 11 76 25 151 59 316 193 770 247 831 25 28 59 46
98 53 3 1 22 -4 42 -9z m6813 -411 c-29 -58 -34 -62 -280 -220 -645 -412
-1391 -717 -2116 -863 -237 -48 -305 -58 -454 -66 -82 -5 -213 -16 -290 -24
-358 -39 -951 -8 -1417 74 -169 30 -183 35 -230 72 -34 28 -65 41 -155 63 -61
15 -117 24 -124 19 -7 -4 -10 -3 -6 3 8 13 -117 48 -134 37 -8 -4 -9 -3 -5 4
4 7 0 13 -11 14 -25 2 -36 4 -53 11 -8 4 -40 16 -70 27 -78 29 -40 20 156 -38
436 -128 907 -212 1367 -243 223 -15 736 -7 937 15 945 103 1785 411 2595 952
77 52 178 123 225 158 47 34 86 62 88 61 2 -2 -9 -27 -23 -56z m-80 -149 c-9
-15 -135 -94 -222 -140 -91 -48 -84 -43 85 67 124 80 150 93 137 73z m-6649
-122 c38 -75 163 -262 258 -387 55 -73 107 -142 115 -153 11 -15 -1 -11 -50
16 -100 55 -201 93 -323 123 -61 15 -113 28 -114 29 -11 8 77 404 89 404 5 0
16 -15 25 -32z m6572 -10 c-8 -13 -24 -40 -36 -60 -53 -86 -642 -412 -1052
-581 -277 -115 -732 -261 -967 -312 -50 -11 -80 -22 -76 -28 3 -6 1 -7 -6 -3
-15 10 -152 -14 -145 -25 3 -5 -2 -6 -10 -3 -8 3 -52 -1 -98 -10 -576 -106
-1269 -112 -1839 -16 -64 11 -120 20 -125 20 -4 0 10 -18 31 -40 21 -22 34
-40 28 -40 -17 0 -212 40 -278 57 -33 8 -69 16 -80 18 -11 1 -27 5 -35 8 -8 3
-58 18 -110 32 -52 15 -143 42 -203 61 -59 19 -112 32 -119 28 -6 -4 -8 -3 -5
3 3 5 -60 35 -141 67 -272 107 -618 287 -864 450 -88 59 -121 87 -151 130
l-38 56 133 -89 c139 -92 248 -156 248 -147 0 3 9 -3 20 -14 12 -12 25 -18 30
-15 6 4 10 2 10 -4 0 -5 68 -44 151 -86 83 -42 148 -72 145 -67 -3 6 -1 14 5
18 7 4 9 3 6 -2 -11 -19 9 -32 113 -76 182 -77 219 -90 231 -82 7 4 10 3 6 -3
-8 -12 97 -48 113 -38 9 5 11 4 6 -3 -16 -26 546 -172 659 -172 l50 0 -25 19
c-24 19 -24 19 35 5 77 -18 363 -59 525 -76 170 -18 823 -17 990 1 314 33 786
114 774 132 -3 5 1 6 9 3 8 -3 59 7 113 21 55 14 106 27 114 29 8 3 35 11 60
20 25 8 101 29 170 45 141 33 167 43 475 168 558 228 775 340 1045 537 63 47
117 85 119 85 2 1 -3 -9 -11 -21z m-274 -90 c-37 -45 -37 -45 -246 -152 -197
-102 -382 -189 -561 -262 -139 -57 -413 -160 -449 -169 -16 -4 -28 -11 -28
-17 0 -5 -4 -7 -8 -4 -13 8 -163 -39 -155 -49 4 -4 3 -5 -4 -1 -6 3 -60 -7
-120 -24 -130 -38 -133 -38 -156 -39 -10 -1 -15 -5 -12 -11 3 -5 0 -7 -8 -4
-7 2 -56 -5 -108 -16 -82 -19 -297 -60 -384 -74 -510 -83 -1175 -83 -1693 0
-51 8 -97 12 -102 9 -6 -4 -10 -2 -10 2 0 5 -42 16 -92 26 -51 9 -104 20 -118
24 -23 6 -24 5 -11 -10 12 -15 12 -17 0 -13 -8 2 -48 12 -89 21 -198 45 -532
155 -765 253 -142 59 -401 186 -529 259 -95 55 -316 193 -316 198 0 2 60 -25
133 -59 72 -34 162 -75 200 -91 37 -15 67 -32 67 -37 0 -19 522 -254 540 -243
5 3 10 1 12 -5 5 -14 319 -122 340 -117 10 3 16 2 13 -2 -4 -7 187 -63 290
-86 17 -4 37 -13 45 -20 27 -24 320 -81 590 -115 400 -49 888 -45 1230 11 36
6 121 14 190 19 87 5 183 20 315 50 105 23 192 45 195 49 3 3 21 7 40 9 71 5
424 106 700 199 259 87 681 284 960 448 69 40 127 73 128 74 2 1 -9 -14 -24
-31z m57 -225 c-34 -62 -113 -141 -181 -181 -110 -66 -444 -231 -605 -300
-954 -408 -1977 -566 -2961 -456 l-142 15 -68 65 c-38 35 -74 64 -81 64 -6 0
-15 5 -19 12 -4 7 -3 8 5 4 6 -4 19 -2 27 5 12 10 13 9 9 -3 -5 -12 21 -19
142 -36 420 -60 776 -74 1068 -41 55 6 152 12 215 14 222 5 772 110 1014 194
33 12 78 21 100 21 51 0 170 42 606 213 267 105 587 258 805 386 39 22 71 41
73 41 1 0 -2 -8 -7 -17z m-5581 -23 c8 -5 11 -10 5 -10 -5 0 -17 5 -25 10 -8
5 -10 10 -5 10 6 0 17 -5 25 -10z m120 -50 c8 -5 11 -10 5 -10 -5 0 -17 5 -25
10 -8 5 -10 10 -5 10 6 0 17 -5 25 -10z m80 -30 c8 -5 11 -10 5 -10 -5 0 -17
5 -25 10 -8 5 -10 10 -5 10 6 0 17 -5 25 -10z m-203 -35 c0 -8 -4 -12 -9 -9
-5 3 -6 10 -3 15 9 13 12 11 12 -6z m283 5 c8 -5 11 -10 5 -10 -5 0 -17 5 -25
10 -8 5 -10 10 -5 10 6 0 17 -5 25 -10z m55 -20 c13 -6 15 -9 5 -9 -8 0 -22 4
-30 9 -18 12 -2 12 25 0z m85 -32 c10 -6 7 -7 -10 -2 -14 3 -32 11 -40 16 -10
6 -7 7 10 2 14 -3 32 -11 40 -16z m-481 -178 c180 -104 414 -200 845 -345 215
-72 630 -180 669 -174 7 1 19 -1 27 -4 8 -3 52 -10 97 -15 80 -10 83 -11 142
-63 33 -30 58 -56 56 -58 -12 -11 -412 77 -629 139 -347 99 -676 225 -981 378
-188 94 -297 157 -325 188 l-25 28 25 -15 c14 -9 58 -35 99 -59z m5197 -69
c-11 -17 -455 -231 -601 -289 -482 -193 -887 -292 -1445 -354 -138 -15 -783
-16 -910 -1 -67 8 -29 9 175 5 648 -12 1184 60 1687 229 114 38 194 59 223 59
48 0 122 27 187 67 20 12 93 43 162 68 148 54 376 149 461 193 68 35 68 35 61
23z m-5262 -206 c16 -74 -72 -278 -213 -493 -87 -132 -89 -133 -135 -83 -18
20 -18 22 15 118 18 54 70 170 114 258 45 88 92 192 104 230 12 39 25 76 27
84 6 19 80 -76 88 -114z m5046 -39 c0 -7 -171 -131 -280 -204 -219 -145 -509
-294 -735 -376 -55 -21 -114 -42 -131 -49 l-31 -12 42 -155 c122 -446 155
-571 155 -584 0 -14 -138 -91 -147 -82 -2 2 -13 73 -24 157 -32 252 -76 449
-156 692 -4 13 0 17 19 17 42 0 235 59 374 115 226 91 590 281 831 434 86 54
83 53 83 47z m-2852 -383 c-10 -2 -28 -2 -40 0 -13 2 -5 4 17 4 22 1 32 -1 23
-4z m-2403 -457 c118 -190 172 -399 182 -703 6 -192 -3 -266 -43 -351 -37 -75
-102 -101 -180 -71 l-28 10 24 12 c70 35 139 200 159 378 23 209 -39 520 -150
753 -11 22 -19 41 -19 43 0 12 15 -7 55 -71z m1750 -171 c27 -169 64 -317 99
-405 14 -33 23 -60 21 -60 -10 0 -146 54 -207 82 -57 26 -67 34 -63 52 3 12
30 137 60 280 30 142 56 261 57 265 0 3 3 -10 5 -29 2 -19 15 -102 28 -185z
m987 190 c11 -5 7 -44 -22 -218 -20 -117 -47 -276 -60 -355 l-24 -143 -51 -14
c-27 -7 -69 -17 -92 -20 l-41 -6 25 103 c30 126 74 343 103 503 30 169 22 155
90 155 32 0 65 -2 72 -5z m566 -534 c18 -40 52 -109 77 -153 25 -44 45 -82 45
-84 0 -7 -84 -3 -104 5 -17 6 -28 48 -72 257 -29 137 -53 254 -53 259 0 6 17
-39 38 -100 21 -60 52 -143 69 -184z m-1268 -281 c64 -15 146 -31 181 -35 l65
-7 -32 -116 c-17 -65 -39 -161 -49 -216 l-18 -99 -111 6 c-130 6 -262 38 -389
92 l-86 37 44 126 c24 70 60 166 80 214 l36 86 82 -30 c45 -16 133 -42 197
-58z m2088 -17 c11 -27 39 -102 62 -168 47 -139 52 -126 -67 -175 -130 -54
-332 -95 -433 -88 l-44 3 -17 95 c-14 81 -37 179 -55 242 -4 14 6 17 63 23
104 11 279 50 368 83 44 16 85 30 91 31 6 0 21 -20 32 -46z m-4384 -371 c7
-206 51 -367 136 -503 69 -109 92 -167 98 -239 3 -50 0 -74 -12 -99 -20 -38
-70 -71 -109 -71 l-29 0 28 33 c64 76 73 173 24 251 -160 252 -239 581 -178
743 18 50 22 54 29 35 5 -12 11 -80 13 -150z m4721 -6 c11 -14 109 -415 103
-420 -1 -2 -27 -6 -55 -9 l-53 -6 0 45 c0 67 -26 185 -69 310 l-38 111 51 -9
c28 -5 56 -15 61 -22z m-2185 -191 c10 -12 8 -45 -13 -173 -14 -86 -33 -211
-42 -277 -9 -66 -18 -135 -21 -154 l-5 -34 -26 25 -25 25 37 289 c20 159 39
295 41 302 5 17 39 15 54 -3z m2591 -379 c345 -88 572 -328 655 -694 13 -59
24 -131 24 -160 0 -66 -34 -143 -94 -209 l-43 -47 5 76 c2 43 -1 121 -8 175
-42 339 -236 616 -577 824 -108 66 -103 71 38 35z m-3750 -193 c14 -14 20 -35
22 -75 1 -31 0 -54 -2 -52 -3 2 -14 -17 -25 -44 -12 -26 -31 -62 -44 -80 -13
-18 -20 -32 -15 -32 4 0 0 -5 -9 -11 -10 -5 -18 -14 -18 -19 0 -5 -13 -23 -30
-41 -16 -18 -26 -37 -23 -42 3 -6 1 -7 -4 -4 -12 8 -95 -82 -87 -95 3 -4 -1
-5 -9 -2 -8 3 -20 -3 -28 -12 -12 -15 -12 -17 0 -9 10 5 12 4 7 -4 -4 -6 -11
-9 -15 -7 -4 3 -24 -11 -45 -30 -20 -19 -41 -34 -46 -34 -5 0 -14 -9 -20 -20
-6 -11 -8 -20 -5 -20 4 0 3 -5 0 -10 -4 -6 -11 -8 -16 -4 -7 4 -6 10 0 18 6 7
-17 -1 -51 -18 -42 -21 -79 -31 -115 -33 -49 -2 -55 1 -78 32 -34 44 -47 125
-29 184 7 24 11 48 8 52 -2 4 -1 9 3 11 8 3 67 123 65 132 -1 6 27 42 90 111
27 28 45 55 40 60 -4 5 -2 5 4 2 6 -4 23 4 38 18 15 13 27 24 29 24 9 -3 55
26 52 32 -3 4 5 5 17 1 21 -5 22 -4 8 14 -14 17 -13 18 1 7 13 -10 25 -10 61
3 104 35 233 34 269 -3z m3058 22 c42 -21 55 -62 47 -148 -4 -39 -8 -82 -9
-94 -1 -11 -5 -19 -9 -16 -5 2 -9 -4 -10 -14 0 -10 -2 -23 -2 -29 -1 -6 -6
-18 -12 -25 -29 -36 -43 -76 -31 -88 9 -10 8 -11 -5 -6 -13 5 -21 -1 -30 -22
-7 -15 -20 -39 -30 -52 -10 -13 -15 -28 -11 -35 3 -6 3 -8 -2 -4 -10 10 -76
-82 -68 -95 3 -6 2 -7 -4 -4 -15 9 -57 -39 -48 -54 5 -7 4 -10 -2 -6 -11 7
-68 -36 -68 -52 0 -6 -3 -11 -7 -11 -4 0 -29 -12 -54 -25 -62 -33 -98 -32
-134 3 -35 36 -52 109 -49 226 2 94 14 146 54 233 13 29 24 56 24 60 -1 3 4 9
9 12 24 15 81 94 75 103 -3 6 -1 8 5 4 6 -3 32 12 58 35 26 22 57 47 70 56 13
8 21 20 17 26 -3 5 -1 7 4 4 6 -4 31 2 54 13 52 23 129 26 168 5z m566 -74 c3
-5 2 -12 -3 -15 -5 -3 -9 1 -9 9 0 17 3 19 12 6z m-2459 -422 c22 -108 15
-280 -15 -398 -28 -105 -39 -126 -93 -177 -78 -73 -80 -72 -42 21 90 220 118
444 89 715 l-5 45 24 -62 c14 -33 33 -98 42 -144z m3411 -406 c14 -30 17 -65
16 -165 -3 -175 -8 -191 -91 -256 l-67 -52 -3 32 c-5 66 -34 192 -58 255 l-24
65 49 54 c27 30 64 79 81 109 l31 55 25 -29 c13 -16 32 -46 41 -68z m-3343
-266 c-2 -118 -22 -283 -39 -317 -20 -39 -46 -58 -109 -80 l-57 -19 8 47 c10
60 10 226 0 273 -7 35 -6 37 51 82 32 25 69 62 83 81 16 25 31 36 44 34 19 -3
20 -10 19 -101z m1536 49 c0 -2 -8 -10 -17 -17 -16 -13 -17 -12 -4 4 13 16 21
21 21 13z"/>
<path d="M10004 13432 c-6 -4 -20 -24 -33 -44 -31 -51 -64 -77 -164 -127 -48
-24 -87 -47 -87 -52 0 -11 95 -39 132 -39 28 0 37 -13 18 -25 -17 -11 -11 -20
22 -34 27 -12 44 -12 107 -2 42 7 79 18 83 25 4 6 11 16 16 23 4 7 52 25 105
40 53 15 97 30 97 33 0 4 -19 15 -42 25 -24 10 -46 20 -50 23 -5 2 -8 -3 -8
-12 0 -18 -42 -31 -67 -21 -17 6 -17 7 1 21 11 8 28 14 38 14 22 0 24 18 2 27
-8 3 -28 -4 -44 -16 -40 -29 -64 -28 -53 2 13 37 8 85 -13 108 -25 27 -48 39
-60 31z m-37 -153 c7 -7 24 -12 39 -13 15 -1 29 -6 31 -12 4 -13 -86 -74 -110
-74 -24 0 -21 26 5 44 30 21 14 32 -25 18 -43 -16 -57 -15 -57 2 0 16 55 45
86 46 11 0 25 -5 31 -11z m73 -97 c0 -9 -54 -42 -69 -42 -22 0 -10 29 17 38
34 13 52 14 52 4z"/>
<path d="M10585 13400 c3 -5 12 -7 20 -3 21 7 19 13 -6 13 -11 0 -18 -4 -14
-10z"/>
<path d="M10668 13224 c-4 -3 -3 -14 1 -23 5 -9 15 -29 22 -44 19 -41 112
-113 177 -138 69 -26 192 -42 209 -27 21 17 -10 50 -84 88 -49 25 -69 42 -73
59 -5 21 -19 29 -95 52 -116 34 -149 41 -157 33z"/>
<path d="M10385 13176 c-132 -33 -266 -126 -296 -204 -5 -13 -7 -27 -4 -32 13
-21 261 66 336 117 35 24 99 101 99 119 0 18 -64 18 -135 0z"/>
<path d="M9490 13153 c1 -31 48 -96 90 -124 22 -15 72 -39 109 -54 79 -30 231
-57 245 -44 6 5 -2 21 -20 40 -40 44 -154 129 -171 129 -7 0 -25 7 -38 16 -26
17 -156 54 -192 54 -15 0 -23 -6 -23 -17z"/>
<path d="M9993 13073 c-24 -5 -30 -18 -12 -28 15 -10 61 4 57 17 -5 14 -16 17
-45 11z"/>
<path d="M6890 13205 c-58 -19 -141 -52 -185 -75 -82 -41 -199 -135 -190 -150
6 -9 63 -6 180 12 181 26 317 105 350 201 7 20 10 39 7 42 -11 11 -61 2 -162
-30z"/>
<path d="M7075 13046 c-58 -42 -218 -106 -264 -106 -30 0 -34 -17 -8 -35 21
-13 28 -14 58 -1 39 16 55 11 60 -19 3 -11 33 -38 69 -62 36 -24 66 -47 68
-53 6 -18 43 -11 118 25 40 19 77 35 80 35 4 0 15 7 24 15 9 8 40 21 70 28 51
13 80 37 46 37 -9 0 -40 12 -67 26 l-51 25 -22 -20 c-25 -24 -46 -27 -64 -9
-20 20 -14 35 19 47 l31 11 -37 44 c-29 36 -57 59 -68 56 -1 -1 -29 -20 -62
-44z m94 -25 c25 -16 4 -41 -34 -41 -27 0 -35 4 -35 18 0 10 3 22 7 25 9 10
45 8 62 -2z m-84 -61 c0 -18 -33 -26 -47 -12 -6 6 -7 15 -3 22 10 16 50 8 50
-10z m-85 -20 c0 -5 0 -13 0 -17 0 -12 -46 -22 -60 -13 -22 14 -3 40 30 40 16
0 30 -4 30 -10z m153 -6 c9 -3 13 -13 10 -25 -4 -16 0 -19 27 -19 41 0 35 -21
-11 -37 -38 -13 -59 -2 -40 21 10 12 7 15 -19 21 -38 8 -43 45 -6 45 13 0 31
-3 39 -6z m137 -24 c0 -5 -5 -10 -11 -10 -5 0 -7 5 -4 10 3 6 8 10 11 10 2 0
4 -4 4 -10z m-175 -109 c3 -5 -4 -13 -16 -16 -23 -8 -34 -1 -24 14 8 13 32 14
40 2z"/>
<path d="M8275 13001 c-61 -51 -96 -67 -172 -82 -63 -12 -79 -25 -45 -35 62
-20 168 -83 200 -119 41 -47 62 -48 62 -3 0 24 3 28 19 23 12 -3 33 4 57 20
20 14 76 37 123 52 83 25 121 43 91 43 -33 0 -204 90 -230 121 -3 3 -17 9 -31
12 -22 6 -36 -1 -74 -32z m83 -29 c2 -7 -7 -12 -22 -12 -27 0 -35 15 -13 23
17 7 30 3 35 -11z m67 -32 c3 -5 -3 -10 -14 -10 -12 0 -21 5 -21 10 0 6 6 10
14 10 8 0 18 -4 21 -10z m75 -30 c0 -5 -9 -10 -20 -10 -11 0 -20 5 -20 10 0 6
9 10 20 10 11 0 20 -4 20 -10z m-242 -37 c2 -8 -5 -13 -17 -13 -12 0 -21 6
-21 16 0 18 31 15 38 -3z m162 -3 c0 -5 -6 -10 -14 -10 -8 0 -18 5 -21 10 -3
6 3 10 14 10 12 0 21 -4 21 -10z"/>
<path d="M7783 12864 c-32 -14 55 -106 139 -147 114 -55 284 -87 303 -57 12
19 -112 126 -190 165 -65 32 -88 38 -158 41 -45 2 -88 1 -94 -2z"/>
<path d="M8690 12839 c-47 -10 -93 -23 -102 -29 -10 -5 -24 -10 -31 -10 -16 0
-79 -30 -87 -40 -3 -4 -19 -14 -36 -23 -45 -23 -94 -66 -94 -83 0 -18 83 -10
185 17 38 11 78 19 88 19 37 0 147 62 192 107 25 26 45 51 45 55 0 13 -68 7
-160 -13z"/>
<path d="M8860 12754 c0 -5 -18 -24 -41 -42 -29 -25 -66 -41 -134 -59 -52 -14
-95 -29 -95 -34 0 -4 26 -13 57 -19 68 -15 82 -22 151 -79 45 -37 57 -42 84
-37 18 3 46 22 64 41 26 29 39 35 73 35 22 0 41 5 41 10 0 6 -5 10 -12 10 -9
0 -9 3 0 12 6 6 43 12 82 13 66 1 103 15 86 32 -12 12 -96 8 -142 -7 -37 -12
-44 -12 -59 3 -9 9 -25 17 -35 17 -19 0 -36 17 -26 27 11 11 56 5 71 -11 19
-19 25 -19 45 -6 13 9 13 11 0 20 -8 5 -22 10 -31 10 -8 0 -37 14 -64 31 -48
31 -115 50 -115 33z m-12 -88 c3 -13 -1 -17 -14 -14 -11 2 -20 11 -22 22 -3
13 1 17 14 14 11 -2 20 -11 22 -22z m62 -31 c0 -16 -35 -21 -44 -6 -8 12 4 21
26 21 10 0 18 -7 18 -15z m-87 -19 c27 -21 22 -39 -10 -31 -34 8 -47 20 -39
34 9 15 27 13 49 -3z"/>
<path d="M9979 12722 c-91 -48 -154 -84 -162 -92 -5 -4 6 -11 24 -15 39 -9
105 -44 178 -96 59 -42 94 -50 89 -21 -2 11 5 18 21 20 13 2 26 12 29 24 4 15
11 19 31 15 16 -3 41 4 68 20 23 13 47 22 53 18 5 -3 10 -1 10 4 0 6 20 11 45
11 61 0 57 14 -10 30 -49 12 -57 11 -73 -3 -23 -21 -46 -21 -80 -3 -15 8 -40
17 -55 21 -27 5 -46 29 -33 42 4 4 27 -3 51 -15 54 -26 65 -27 65 -7 0 8 -9
15 -19 15 -11 0 -23 5 -26 10 -3 6 -14 10 -23 10 -10 0 -34 9 -55 20 -49 26
-65 25 -128 -8z m89 6 c7 -7 12 -15 12 -20 0 -4 -32 -26 -71 -49 -54 -31 -74
-38 -82 -29 -9 8 -3 18 23 40 19 16 39 30 43 30 4 0 17 9 29 20 25 23 30 24
46 8z m41 -77 c22 -14 3 -31 -35 -31 -23 0 -34 5 -34 14 0 23 43 34 69 17z
m-79 -56 c0 -10 -10 -15 -30 -15 -29 0 -38 9 -23 23 13 13 53 7 53 -8z m160
11 c0 -7 -122 -66 -137 -66 -25 0 -13 20 22 37 19 9 35 20 35 25 0 4 18 8 40
8 22 0 40 -2 40 -4z"/>
<path d="M7600 12691 c-69 -27 -141 -55 -160 -63 -19 -9 -50 -21 -68 -28 l-34
-13 49 -19 c26 -10 63 -18 81 -18 25 0 35 -5 42 -24 11 -29 43 -52 85 -60 33
-6 65 6 46 18 -19 12 -12 26 12 26 31 0 329 99 344 114 3 3 -6 8 -19 11 -23 6
-45 0 -149 -40 -45 -18 -86 -15 -74 5 3 5 32 17 63 26 31 9 61 20 66 25 20 18
-5 21 -50 5 -57 -19 -84 -6 -46 22 13 10 20 21 16 25 -13 12 -42 8 -48 -8 -7
-18 -60 -21 -54 -2 3 6 14 13 26 15 23 4 31 32 10 31 -7 0 -69 -22 -138 -48z
m66 -22 c8 -14 -14 -29 -43 -29 -24 0 -32 25 -10 33 22 9 46 7 53 -4z m-111
-49 c-3 -5 -13 -10 -21 -10 -8 0 -14 5 -14 10 0 6 9 10 21 10 11 0 17 -4 14
-10z m115 -70 c0 -14 -35 -30 -64 -30 -30 0 -36 26 -8 33 32 9 72 7 72 -3z"/>
<path d="M10565 12600 c-3 -5 -70 -30 -149 -55 -145 -46 -210 -81 -242 -129
-27 -42 -11 -49 87 -42 155 12 341 84 368 143 15 33 14 36 -14 67 -25 27 -40
32 -50 16z"/>
<path d="M6937 12579 c-31 -5 -76 -15 -100 -23 -23 -7 -61 -17 -84 -21 -24 -4
-45 -11 -49 -16 -3 -5 -13 -9 -22 -9 -9 0 -30 -7 -46 -15 -15 -8 -33 -15 -39
-15 -52 0 -340 -181 -319 -202 8 -8 128 6 182 23 63 19 183 70 270 115 227
116 327 155 341 133 4 -7 6 -16 3 -20 -2 -4 11 -29 29 -55 34 -52 75 -78 165
-107 59 -20 242 -35 242 -21 0 5 -13 21 -29 37 -15 15 -36 45 -46 67 -18 40
-19 40 -73 40 -49 0 -54 2 -49 20 4 17 -3 22 -46 35 -28 8 -70 15 -94 15 -30
0 -45 5 -49 15 -7 17 -87 19 -187 4z"/>
<path d="M10676 12445 c-21 -31 -92 -65 -193 -91 -40 -10 -73 -21 -73 -24 1
-3 36 -23 80 -44 44 -21 120 -65 169 -97 98 -63 141 -81 141 -57 0 8 -11 20
-25 26 -35 16 -33 36 3 28 83 -21 85 -21 78 8 -4 17 -2 26 6 26 6 0 24 11 38
25 23 22 31 24 55 15 15 -6 28 -9 29 -8 13 32 27 43 59 43 54 0 53 11 -2 25
-28 7 -70 25 -93 41 -45 29 -77 30 -109 3 -20 -18 -39 -18 -39 0 0 8 9 18 21
21 19 6 19 8 4 25 -19 20 -66 45 -106 55 -21 5 -29 1 -43 -20z m79 -24 c3 -5
0 -13 -7 -18 -24 -14 -38 -11 -38 8 0 20 34 27 45 10z m-75 -41 c0 -5 -10 -10
-22 -10 -19 0 -20 2 -8 10 19 13 30 13 30 0z m253 -38 c19 -21 13 -32 -18 -32
-26 0 -45 18 -38 36 7 20 37 17 56 -4z m-313 -1 c0 -12 -21 -19 -37 -13 -22 8
-14 22 12 22 14 0 25 -4 25 -9z m155 -11 c0 -8 -7 -15 -15 -16 -24 -1 -51 16
-44 27 9 16 59 6 59 -11z m-245 -10 c0 -5 -7 -10 -16 -10 -8 0 -12 5 -9 10 3
6 10 10 16 10 5 0 9 -4 9 -10z m346 -21 c7 -11 -12 -29 -31 -29 -19 0 -38 18
-31 29 4 6 18 11 31 11 13 0 27 -5 31 -11z m-108 -37 c5 -17 -27 -27 -41 -13
-9 9 -8 14 3 21 18 11 32 8 38 -8z m-45 -47 c4 -8 3 -16 -1 -19 -12 -7 -53 14
-47 24 9 15 42 12 48 -5z"/>
<path d="M12135 12390 c-3 -5 -1 -10 4 -10 6 0 11 5 11 10 0 6 -2 10 -4 10 -3
0 -8 -4 -11 -10z"/>
<path d="M12078 12373 c7 -3 16 -2 19 1 4 3 -2 6 -13 5 -11 0 -14 -3 -6 -6z"/>
<path d="M6945 11213 c-111 -16 -224 -62 -330 -138 -160 -114 -285 -314 -330
-529 -21 -103 -21 -289 1 -392 36 -175 122 -335 243 -454 128 -125 304 -203
450 -199 l46 1 -45 8 c-429 75 -700 566 -575 1044 53 202 198 393 366 481 93
49 149 65 249 71 350 24 655 -258 736 -679 l14 -72 -5 105 c-7 159 -46 281
-131 413 -157 243 -427 376 -689 340z"/>
<path d="M9955 11213 c-178 -25 -364 -134 -474 -280 -109 -144 -167 -306 -176
-493 l-5 -105 15 80 c74 393 331 664 655 691 544 46 909 -639 636 -1191 -103
-206 -281 -353 -486 -400 l-65 -15 75 4 c290 17 558 266 647 604 36 134 38
334 5 466 -103 412 -461 689 -827 639z"/>
<path d="M7025 10903 c-317 -113 -456 -506 -294 -832 189 -382 670 -380 860 3
147 297 38 667 -236 802 -73 36 -85 39 -179 42 -77 2 -113 -2 -151 -15z m381
-164 c61 -29 89 -78 89 -155 0 -49 -5 -68 -27 -101 -50 -76 -159 -92 -215 -31
-103 113 -46 295 96 307 8 0 34 -8 57 -20z"/>
<path d="M9774 10902 c-162 -57 -290 -208 -339 -397 -19 -75 -19 -221 0 -303
36 -152 150 -303 275 -366 186 -93 380 -58 530 93 36 36 80 94 98 128 95 180
95 417 0 596 -47 89 -147 186 -233 228 -64 30 -80 33 -175 36 -82 3 -116 -1
-156 -15z m26 -171 c49 -35 70 -79 70 -146 0 -48 -5 -70 -22 -95 -36 -52 -71
-73 -123 -73 -52 0 -87 21 -122 73 -27 39 -32 134 -9 178 43 83 137 112 206
63z"/>
<path d="M8434 9695 c-95 -20 -205 -75 -242 -121 -35 -42 -62 -117 -62 -172 0
-85 125 -243 235 -296 91 -44 169 -54 268 -33 71 14 215 73 205 83 -2 2 -26
-4 -53 -12 -239 -72 -440 -1 -543 193 -27 51 -29 63 -22 102 9 53 34 88 86
122 153 101 378 120 554 47 l45 -18 -25 20 c-39 32 -140 77 -198 89 -69 14
-172 13 -248 -4z"/>
<path d="M9685 9088 c-16 -6 -43 -20 -60 -32 l-29 -20 108 -12 c60 -7 113 -17
118 -22 12 -12 -161 -184 -236 -233 -208 -136 -605 -208 -1086 -196 -527 13
-912 103 -1100 257 -77 63 -160 142 -160 151 0 12 54 29 130 42 l75 13 -45 24
c-33 17 -62 24 -111 24 -86 1 -151 -36 -187 -107 -28 -53 -32 -140 -11 -205
l12 -36 32 93 c18 51 42 102 53 113 l20 20 18 -28 c10 -16 37 -58 60 -94 23
-36 45 -83 49 -105 4 -22 26 -107 50 -190 165 -565 423 -968 715 -1115 132
-67 372 -101 569 -82 323 32 501 127 676 361 157 208 302 571 371 930 24 123
31 145 80 230 29 52 55 99 57 105 8 20 65 -46 89 -100 25 -59 33 -65 42 -31
25 94 -19 193 -106 238 -42 21 -142 25 -193 7z m-2010 -497 c200 -61 422 -95
729 -111 474 -24 906 39 1168 171 l58 29 -6 -27 c-3 -16 -13 -62 -23 -103
l-17 -75 -58 -23 c-279 -111 -774 -164 -1234 -132 -285 20 -743 88 -769 113
-10 11 -73 211 -73 235 0 6 28 -2 63 -18 34 -15 107 -42 162 -59z m749 -406
c-4 -8 -10 -15 -15 -15 -4 0 -6 7 -3 15 4 8 10 15 15 15 4 0 6 -7 3 -15z m36
11 c0 -3 -4 -8 -10 -11 -5 -3 -10 -1 -10 4 0 6 5 11 10 11 6 0 10 -2 10 -4z
m345 -16 c3 -5 12 -7 19 -4 8 3 17 1 21 -5 4 -7 -1 -10 -12 -8 -23 4 -62 26
-46 27 6 0 14 -4 18 -10z m-455 -4 c0 -3 -4 -8 -10 -11 -5 -3 -10 -1 -10 4 0
6 5 11 10 11 6 0 10 -2 10 -4z m-54 -21 c-13 -10 -15 -15 -6 -15 7 0 11 -3 7
-6 -3 -3 -14 -1 -24 4 -17 10 -16 11 7 21 35 14 38 13 16 -4z m585 -2 c13 -16
12 -17 -3 -4 -10 7 -18 15 -18 17 0 8 8 3 21 -13z m-544 -9 c-3 -3 -12 -4 -19
-1 -8 3 -5 6 6 6 11 1 17 -2 13 -5z m-181 -56 c-2 -14 -8 -18 -28 -18 -6 0 -3
7 8 15 23 18 23 18 20 3z m-50 -23 c-1 -8 -6 -18 -11 -22 -4 -4 -5 -2 -1 5 4
6 3 12 -2 12 -13 0 -22 -25 -17 -49 2 -11 0 -23 -5 -26 -4 -3 -7 3 -5 12 1 10
-2 27 -8 38 -5 11 -6 17 -3 13 4 -3 16 2 27 13 23 23 28 24 25 4z m966 -10 c3
0 9 -3 13 -7 6 -5 -19 -4 -35 2 -3 1 -9 2 -13 1 -5 -1 -6 3 -2 9 3 6 12 7 18
3 7 -4 15 -8 19 -8z m-252 -47 c30 -7 61 -12 68 -11 6 0 12 -3 12 -9 0 -5 6
-8 13 -7 6 2 29 -5 51 -14 21 -9 41 -17 45 -17 3 0 19 -7 35 -15 15 -8 32 -12
37 -9 5 3 9 2 8 -3 -3 -20 2 -27 11 -13 8 13 10 13 10 -1 0 -10 11 -20 25 -23
14 -4 25 -11 25 -17 0 -6 8 -5 23 2 21 12 21 11 7 -6 -14 -17 -13 -18 2 -12
11 4 17 2 15 -6 -1 -7 4 -11 11 -9 6 1 11 -2 10 -7 -2 -5 2 -9 7 -9 6 0 9 4 7
10 -1 5 2 7 7 3 6 -3 8 -12 5 -19 -3 -8 -1 -17 5 -21 6 -3 11 1 11 9 0 19 16
21 26 4 4 -7 3 -8 -4 -4 -8 4 -12 0 -12 -11 0 -23 -91 -130 -160 -189 -137
-117 -354 -172 -627 -161 -221 9 -356 54 -482 160 -84 72 -175 179 -159 188 9
6 9 11 0 21 -8 11 -7 14 7 14 12 0 17 -5 13 -14 -4 -11 2 -10 22 3 17 11 25
24 21 33 -4 12 -3 12 9 3 9 -7 17 -8 20 -2 3 5 0 12 -6 15 -7 3 -1 3 15 0 16
-4 27 -2 27 5 0 6 3 11 8 10 20 -3 52 15 53 30 0 9 3 11 5 4 3 -7 12 -9 20 -6
7 3 12 9 9 13 -3 5 0 12 6 16 8 4 9 3 5 -4 -9 -15 -7 -15 32 -1 18 6 30 15 27
19 -3 4 5 6 17 2 14 -3 19 -2 14 6 -4 7 -4 12 1 13 4 1 24 3 43 4 19 2 49 9
65 16 17 6 46 14 65 16 19 2 39 7 45 11 5 5 62 9 125 11 63 2 116 4 118 5 4 4
123 -13 182 -26z m-793 7 c0 -8 -4 -12 -9 -9 -5 3 -6 10 -3 15 9 13 12 11 12
-6z m-23 -14 c3 -5 -1 -11 -9 -14 -9 -4 -12 -1 -8 9 6 16 10 17 17 5z m1080 1
c2 -4 -4 -8 -14 -8 -10 0 -16 4 -14 8 3 4 9 8 14 8 5 0 11 -4 14 -8z m72 -7
c8 -8 15 -18 15 -22 1 -4 5 -7 10 -5 5 1 9 -2 9 -8 0 -18 -19 -10 -36 15 -9
14 -21 22 -27 18 -6 -3 -7 -1 -3 5 9 16 14 15 32 -3z m-1189 -20 c0 -8 -4 -12
-9 -9 -5 3 -6 10 -3 15 9 13 12 11 12 -6z m-44 -30 c-3 -9 -8 -14 -10 -11 -3
3 -2 9 2 15 9 16 15 13 8 -4z m1292 -5 c-3 -5 -11 -10 -16 -10 -6 0 -7 5 -4
10 3 6 11 10 16 10 6 0 7 -4 4 -10z m-41 -8 c3 -5 -1 -9 -9 -9 -8 0 -12 4 -9
9 3 4 7 8 9 8 2 0 6 -4 9 -8z m89 -31 c4 0 7 -9 7 -18 0 -15 -2 -15 -9 -4 -8
13 -12 13 -28 1 -10 -8 -15 -10 -11 -6 4 5 3 15 -2 21 -9 11 3 13 43 6z
m-1413 -35 c0 -2 -7 -7 -16 -10 -8 -3 -12 -2 -9 4 6 10 25 14 25 6z m1411 -13
c13 -16 12 -17 -3 -4 -10 7 -18 15 -18 17 0 8 8 3 21 -13z m-1434 -28 c0 -20
-4 -19 -17 5 -8 15 -8 18 3 14 8 -3 14 -11 14 -19z m1486 8 c-3 -7 -6 -13 -8
-13 -2 0 -5 6 -8 13 -3 8 1 14 8 14 7 0 11 -6 8 -14z"/>
<path d="M8047 7187 c37 -63 141 -154 233 -205 181 -100 406 -98 566 6 60 40
151 129 173 171 11 19 4 17 -46 -17 -71 -48 -159 -93 -233 -118 -81 -28 -250
-26 -349 5 -92 28 -196 76 -284 129 -37 23 -64 36 -60 29z"/>
</g>
</svg>
